<svg xmlns="http://www.w3.org/2000/svg" viewBox="0 0 298 264"><g fill="none" stroke="#80b380" stroke-width="2"><path d="M73 144.74a.55.55 0 0 0 .46.54l84.9 14.41a.55.55 0 0 0 .64-.54V15.13a.55.55 0 0 0-.64-.54l-84.9 14.42a.55.55 0 0 0-.46.54v115.19M184.71 54.98l-19.88-.12a1.32 1.32 0 0 0-1.33 1.32V58q0 .5.5.5h19.53q2.03 0 2.01 2.03l-.13 12.6q-.02 1.52-1.54 1.53l-19.89.12q-.48.01-.48.49v2.48q0 .5.5.5h20.4a1.15 1.14-90 0 1 1.14 1.15l-.02 13.71a.69.68 74.1 0 1-.32.58c-1.89 1.21-3.67.63-5.4.67q-7.87.21-15.76.11-.54-.01-.54.53v2.47q0 .53.53.53h20.22a1.25 1.25 0 0 1 1.25 1.25v13.5a1.25 1.25 0 0 1-1.25 1.25h-20.13q-.62 0-.62.63v2.87q0 .5.5.5h20.58a.83.83 0 0 1 .83.82l.13 13.75q.02 1.37-1.36 1.37l-20.07.09q-.61 0-.61.61v7.73q0 .63.62.63h58.38q.5 0 .5-.5v-111a.5.5 0 0 0-.5-.5h-57.47a1.53 1.53 0 0 0-1.53 1.53v5.59a.63.63 0 0 0 .63.63h20.13a1.3 1.3 0 0 1 1.3 1.32l-.22 14.29q-.01.63-.63.62M181.82 176.518a.46.46 0 0 0-.457-.462l-2.24-.012a.46.46 0 0 0-.463.458l-.12 23a.46.46 0 0 0 .457.462l2.24.012a.46.46 0 0 0 .463-.458l.12-23M116.7 189.6a.59.59 0 0 1 .59-.6h9.62a.59.59 0 0 0 .59-.59v-1.82a.59.59 0 0 0-.59-.59h-9.57a.59.59 0 0 1-.59-.59v-4.82a.59.59 0 0 1 .59-.59h10.32a.59.59 0 0 0 .59-.59v-1.82a.59.59 0 0 0-.59-.59h-13.57a.59.59 0 0 0-.59.59v21.82a.59.59 0 0 0 .59.59h13.57a.59.59 0 0 0 .59-.59v-1.82a.59.59 0 0 0-.59-.59h-10.3a.59.59 0 0 1-.59-.58l-.07-6.82M137.51 194.41c1.83 2.64 2.95 6.47 6.93 5.51q.56-.13.23-.6l-5.35-7.67q-.21-.31.01-.61l5.27-7.22a.46.46 0 0 0-.22-.71c-3.58-1.22-4.92 3.15-6.73 5.39q-.37.45-.72-.02c-1.88-2.58-2.89-6.53-6.96-5.37q-.55.16-.22.62l5.39 7.47q.28.38 0 .77l-5.39 7.35q-.32.44.2.6c3.61 1.09 5.12-3.16 6.87-5.52q.35-.47.69.01M158.77 195.01c-11.08 8.73-14.67-14.44-.03-7.28a.53.53 0 0 0 .76-.48V185q0-.53-.47-.78c-6.58-3.4-13.69.12-13.05 8.05.59 7.29 6.95 9.63 13.01 6.55q.52-.26.52-.84l-.03-2.63a.44.44 0 0 0-.71-.34" vector-effect="non-scaling-stroke"/><path d="M174.8 195.12c-3.65 2.41-10.16 3.06-11.01-2.55q-.09-.57.48-.57h10.99a.66.66 0 0 0 .66-.67q-.08-9.21-8.82-8.03c-11.78 1.59-7.25 22.65 7.95 15.41q.45-.22.45-.72v-2.5a.45.45 0 0 0-.7-.37M131.96 239.51l-4.63-13.92q-.2-.61-.84-.6l-1.54.03q-.74.02-.5.72l5.83 17.04a2.03 2.03 0 0 0 3.84 0l5.84-17.11q.22-.67-.48-.67h-1.5q-.64 0-.84.61l-4.61 13.9a.3.3 0 0 1-.57 0M151.84 233.17l1.17-1.04q.31-.28.42-.67c2.29-7.67-5.95-6.67-11.07-6.36q-.61.03-.61.64v17.52q0 .58.58.62 5.63.44 7.35.04c5.35-1.24 7.43-7.36 2.24-10.16q-.46-.24-.08-.59M159.91 239.01 166 239a.92.91 81.7 0 1 .89.67l1.04 3.71a.83.82 82.4 0 0 .78.6l1.73.03q.71.01.48-.67l-5.74-17.08a2.21 2.21 0 0 0-4.19 0l-5.79 17.07q-.24.7.5.67l1.61-.06q.69-.02.87-.69l1.01-3.69a.75.75 0 0 1 .72-.55M116.35 76.98a.33.33 0 0 1-.62-.01l-6.01-16.31a.33.33 0 0 0-.34-.22l-10.11.86a.33.33 0 0 0-.28.46l10.51 24.3a.33.33 0 0 1-.01.28l-11.55 24.03a.33.33 0 0 0 .27.47l9.99.84a.33.33 0 0 0 .33-.2l6.81-16.5a.33.33 0 0 1 .61.01l7.08 17.42a.33.33 0 0 0 .29.2l11.32.72a.33.33 0 0 0 .32-.47l-12.64-26.85a.33.33 0 0 1 0-.28l12.27-26.28a.33.33 0 0 0-.32-.47l-10.73.61a.33.33 0 0 0-.29.2l-6.9 17.19M215.037 39.727a.79.79 0 0 0-.786-.794l-23.92-.126a.79.79 0 0 0-.793.786l-.075 14.28a.79.79 0 0 0 .786.794l23.92.125a.79.79 0 0 0 .793-.785l.075-14.28M215 59.13a.38.38 0 0 0-.38-.38h-24.78a.38.38 0 0 0-.38.38v14.98a.38.38 0 0 0 .38.38h24.78a.38.38 0 0 0 .38-.38V59.13M214.987 78.948a.47.47 0 0 0-.47-.47l-24.58.044a.47.47 0 0 0-.47.47l.026 14.78a.47.47 0 0 0 .47.47l24.58-.044a.47.47 0 0 0 .47-.47l-.026-14.78M215.012 99.232a.94.94 0 0 0-.938-.941l-23.62-.042a.94.94 0 0 0-.942.939l-.024 13.86a.94.94 0 0 0 .938.941l23.62.042a.94.94 0 0 0 .942-.939l.024-13.86M215 119.2a1.19 1.19 0 0 0-1.19-1.19h-23.12a1.19 1.19 0 0 0-1.19 1.19v13.36a1.19 1.19 0 0 0 1.19 1.19h23.12a1.19 1.19 0 0 0 1.19-1.19V119.2" vector-effect="non-scaling-stroke"/><path d="m164 189.05 8.7-.18a.12.12 0 0 0 .12-.12v-.03a4.28 2.73-1.2 0 0-4.34-2.64h-.38a4.28 2.73-1.2 0 0-4.22 2.82v.03a.12.12 0 0 0 .12.12M144.48 227.67l.02 4.6a.7.7 0 0 0 .7.7l2.48-.01a3.36 2.81-.2 0 0 3.35-2.82v-.38a3.36 2.81-.2 0 0-3.37-2.8l-2.48.01a.7.7 0 0 0-.7.7M144.51 235.59l-.02 5.68a.66.66 0 0 0 .66.66l2.47.01a4.33 3.36.2 0 0 4.34-3.35v-.28a4.33 3.36.2 0 0-4.32-3.37l-2.47-.01a.66.66 0 0 0-.66.66M160.27 236.61a.3.3 0 0 0 .29.39h4.98a.3.3 0 0 0 .29-.39l-2.49-7.75a.3.3 0 0 0-.58 0l-2.49 7.75" vector-effect="non-scaling-stroke"/></g><path fill="#060" d="M0 0h298v264H0V0Zm73 144.74a.55.55 0 0 0 .46.54l84.9 14.41a.55.55 0 0 0 .64-.54V15.13a.55.55 0 0 0-.64-.54l-84.9 14.42a.55.55 0 0 0-.46.54v115.19Zm111.71-89.76-19.88-.12a1.32 1.32 0 0 0-1.33 1.32V58q0 .5.5.5h19.53q2.03 0 2.01 2.03l-.13 12.6q-.02 1.52-1.54 1.53l-19.89.12q-.48.01-.48.49v2.48q0 .5.5.5h20.4a1.15 1.14-90 0 1 1.14 1.15l-.02 13.71a.69.68 74.1 0 1-.32.58c-1.89 1.21-3.67.63-5.4.67q-7.87.21-15.76.11-.54-.01-.54.53v2.47q0 .53.53.53h20.22a1.25 1.25 0 0 1 1.25 1.25v13.5a1.25 1.25 0 0 1-1.25 1.25h-20.13q-.62 0-.62.63v2.87q0 .5.5.5h20.58a.83.83 0 0 1 .83.82l.13 13.75q.02 1.37-1.36 1.37l-20.07.09q-.61 0-.61.61v7.73q0 .63.62.63h58.38q.5 0 .5-.5v-111a.5.5 0 0 0-.5-.5h-57.47a1.53 1.53 0 0 0-1.53 1.53v5.59a.63.63 0 0 0 .63.63h20.13a1.3 1.3 0 0 1 1.3 1.32l-.22 14.29q-.01.63-.63.62Zm-2.89 121.538a.46.46 0 0 0-.457-.462l-2.24-.012a.46.46 0 0 0-.463.458l-.12 23a.46.46 0 0 0 .457.462l2.24.012a.46.46 0 0 0 .463-.458l.12-23ZM116.7 189.6a.59.59 0 0 1 .59-.6h9.62a.59.59 0 0 0 .59-.59v-1.82a.59.59 0 0 0-.59-.59h-9.57a.59.59 0 0 1-.59-.59v-4.82a.59.59 0 0 1 .59-.59h10.32a.59.59 0 0 0 .59-.59v-1.82a.59.59 0 0 0-.59-.59h-13.57a.59.59 0 0 0-.59.59v21.82a.59.59 0 0 0 .59.59h13.57a.59.59 0 0 0 .59-.59v-1.82a.59.59 0 0 0-.59-.59h-10.3a.59.59 0 0 1-.59-.58l-.07-6.82Zm20.81 4.81c1.83 2.64 2.95 6.47 6.93 5.51q.56-.13.23-.6l-5.35-7.67q-.21-.31.01-.61l5.27-7.22a.46.46 0 0 0-.22-.71c-3.58-1.22-4.92 3.15-6.73 5.39q-.37.45-.72-.02c-1.88-2.58-2.89-6.53-6.96-5.37q-.55.16-.22.62l5.39 7.47q.28.38 0 .77l-5.39 7.35q-.32.44.2.6c3.61 1.09 5.12-3.16 6.87-5.52q.35-.47.69.01Zm21.26.6c-11.08 8.73-14.67-14.44-.03-7.28a.53.53 0 0 0 .76-.48V185q0-.53-.47-.78c-6.58-3.4-13.69.12-13.05 8.05.59 7.29 6.95 9.63 13.01 6.55q.52-.26.52-.84l-.03-2.63a.44.44 0 0 0-.71-.34Zm16.03.11c-3.65 2.41-10.16 3.06-11.01-2.55q-.09-.57.48-.57h10.99a.66.66 0 0 0 .66-.67q-.08-9.21-8.82-8.03c-11.78 1.59-7.25 22.65 7.95 15.41q.45-.22.45-.72v-2.5a.45.45 0 0 0-.7-.37Zm-42.84 44.39-4.63-13.92q-.2-.61-.84-.6l-1.54.03q-.74.02-.5.72l5.83 17.04a2.03 2.03 0 0 0 3.84 0l5.84-17.11q.22-.67-.48-.67h-1.5q-.64 0-.84.61l-4.61 13.9a.3.3 0 0 1-.57 0Zm19.88-6.34 1.17-1.04q.31-.28.42-.67c2.29-7.67-5.95-6.67-11.07-6.36q-.61.03-.61.64v17.52q0 .58.58.62 5.63.44 7.35.04c5.35-1.24 7.43-7.36 2.24-10.16q-.46-.24-.08-.59Zm8.07 5.84L166 239a.92.91 81.7 0 1 .89.67l1.04 3.71a.83.82 82.4 0 0 .78.6l1.73.03q.71.01.48-.67l-5.74-17.08a2.21 2.21 0 0 0-4.19 0l-5.79 17.07q-.24.7.5.67l1.61-.06q.69-.02.87-.69l1.01-3.69a.75.75 0 0 1 .72-.55Z"/><path fill="#fff" d="M73 144.74V29.55a.55.55 0 0 1 .46-.54l84.9-14.42a.55.55 0 0 1 .64.54v144.02a.55.55 0 0 1-.64.54l-84.9-14.41a.55.55 0 0 1-.46-.54Zm43.35-67.76a.33.33 0 0 1-.62-.01l-6.01-16.31a.33.33 0 0 0-.34-.22l-10.11.86a.33.33 0 0 0-.28.46l10.51 24.3a.33.33 0 0 1-.01.28l-11.55 24.03a.33.33 0 0 0 .27.47l9.99.84a.33.33 0 0 0 .33-.2l6.81-16.5a.33.33 0 0 1 .61.01l7.08 17.42a.33.33 0 0 0 .29.2l11.32.72a.33.33 0 0 0 .32-.47l-12.64-26.85a.33.33 0 0 1 0-.28l12.27-26.28a.33.33 0 0 0-.32-.47l-10.73.61a.33.33 0 0 0-.29.2l-6.9 17.19ZM185.34 54.36l.22-14.29a1.3 1.3 0 0 0-1.3-1.32h-20.13a.63.63 0 0 1-.63-.63v-5.59a1.53 1.53 0 0 1 1.53-1.53h57.47a.5.5 0 0 1 .5.5v111q0 .5-.5.5h-58.38q-.62 0-.62-.63v-7.73q0-.61.61-.61l20.07-.09q1.38 0 1.36-1.37l-.13-13.75a.83.83 0 0 0-.83-.82H164q-.5 0-.5-.5v-2.87q0-.63.62-.63h20.13a1.25 1.25 0 0 0 1.25-1.25v-13.5a1.25 1.25 0 0 0-1.25-1.25h-20.22q-.53 0-.53-.53V95q0-.54.54-.53 7.89.1 15.76-.11c1.73-.04 3.51.54 5.4-.67a.69.68 74.1 0 0 .32-.58l.02-13.71a1.15 1.14 90 0 0-1.14-1.15H164q-.5 0-.5-.5v-2.48q0-.48.48-.49l19.89-.12q1.52-.01 1.54-1.53l.13-12.6q.02-2.03-2.01-2.03H164q-.5 0-.5-.5v-1.82a1.32 1.32 0 0 1 1.33-1.32l19.88.12q.62.01.63-.62Zm29.697-14.633a.79.79 0 0 0-.786-.794l-23.92-.126a.79.79 0 0 0-.793.786l-.075 14.28a.79.79 0 0 0 .786.794l23.92.125a.79.79 0 0 0 .793-.785l.075-14.28ZM215 59.13a.38.38 0 0 0-.38-.38h-24.78a.38.38 0 0 0-.38.38v14.98a.38.38 0 0 0 .38.38h24.78a.38.38 0 0 0 .38-.38V59.13Zm-.013 19.818a.47.47 0 0 0-.47-.47l-24.58.044a.47.47 0 0 0-.47.47l.026 14.78a.47.47 0 0 0 .47.47l24.58-.044a.47.47 0 0 0 .47-.47l-.026-14.78Zm.025 20.284a.94.94 0 0 0-.938-.941l-23.62-.042a.94.94 0 0 0-.942.939l-.024 13.86a.94.94 0 0 0 .938.941l23.62.042a.94.94 0 0 0 .942-.939l.024-13.86ZM215 119.2a1.19 1.19 0 0 0-1.19-1.19h-23.12a1.19 1.19 0 0 0-1.19 1.19v13.36a1.19 1.19 0 0 0 1.19 1.19h23.12a1.19 1.19 0 0 0 1.19-1.19V119.2Z"/><rect width="25.5" height="15.86" x="-12.75" y="-7.93" fill="#060" rx=".79" transform="rotate(.3 -8836.996 38650.216)"/><rect width="25.54" height="15.74" x="189.46" y="58.75" fill="#060" rx=".38"/><path fill="#060" d="m116.35 76.98 6.9-17.19a.33.33 0 0 1 .29-.2l10.73-.61a.33.33 0 0 1 .32.47l-12.27 26.28a.33.33 0 0 0 0 .28l12.64 26.85a.33.33 0 0 1-.32.47l-11.32-.72a.33.33 0 0 1-.29-.2l-7.08-17.42a.33.33 0 0 0-.61-.01l-6.81 16.5a.33.33 0 0 1-.33.2l-9.99-.84a.33.33 0 0 1-.27-.47l11.55-24.03a.33.33 0 0 0 .01-.28l-10.51-24.3a.33.33 0 0 1 .28-.46l10.11-.86a.33.33 0 0 1 .34.22l6.01 16.31a.33.33 0 0 0 .62.01Z"/><rect width="25.52" height="15.72" x="-12.76" y="-7.86" fill="#060" rx=".47" transform="rotate(-.1 49581.743 -115831.775)"/><rect width="25.5" height="15.74" x="-12.75" y="-7.87" fill="#060" rx=".94" transform="rotate(.1 -60712.6 115933.755)"/><rect width="25.5" height="15.74" x="189.5" y="118.01" fill="#060" rx="1.19"/><rect width="3.16" height="23.92" x="-1.58" y="-11.96" fill="#fff" rx=".46" transform="rotate(.3 -35817.093 34505.772)"/><path fill="#fff" d="m116.7 189.6.07 6.82a.59.59 0 0 0 .59.58h10.3a.59.59 0 0 1 .59.59v1.82a.59.59 0 0 1-.59.59h-13.57a.59.59 0 0 1-.59-.59v-21.82a.59.59 0 0 1 .59-.59h13.57a.59.59 0 0 1 .59.59v1.82a.59.59 0 0 1-.59.59h-10.32a.59.59 0 0 0-.59.59v4.82a.59.59 0 0 0 .59.59h9.57a.59.59 0 0 1 .59.59v1.82a.59.59 0 0 1-.59.59h-9.62a.59.59 0 0 0-.59.6ZM136.82 194.4c-1.75 2.36-3.26 6.61-6.87 5.52q-.52-.16-.2-.6l5.39-7.35q.28-.39 0-.77l-5.39-7.47q-.33-.46.22-.62c4.07-1.16 5.08 2.79 6.96 5.37q.35.47.72.02c1.81-2.24 3.15-6.61 6.73-5.39a.46.46 0 0 1 .22.71l-5.27 7.22q-.22.3-.01.61l5.35 7.67q.33.47-.23.6c-3.98.96-5.1-2.87-6.93-5.51q-.34-.48-.69-.01ZM158.74 187.73c-14.64-7.16-11.05 16.01.03 7.28a.44.44 0 0 1 .71.34l.03 2.63q0 .58-.52.84c-6.06 3.08-12.42.74-13.01-6.55-.64-7.93 6.47-11.45 13.05-8.05q.47.25.47.78v2.25a.53.53 0 0 1-.76.48Z"/><path fill="#fff" d="M163.79 192.57c.85 5.61 7.36 4.96 11.01 2.55a.45.45 0 0 1 .7.37v2.5q0 .5-.45.72c-15.2 7.24-19.73-13.82-7.95-15.41q8.74-1.18 8.82 8.03a.66.66 0 0 1-.66.67h-10.99q-.57 0-.48.57Zm.21-3.52 8.7-.18a.12.12 0 0 0 .12-.12v-.03a4.28 2.73-1.2 0 0-4.34-2.64h-.38a4.28 2.73-1.2 0 0-4.22 2.82v.03a.12.12 0 0 0 .12.12Z"/><path fill="#060" d="M164 189.05a.12.12 0 0 1-.12-.12v-.03a4.28 2.73-1.2 0 1 4.22-2.82h.38a4.28 2.73-1.2 0 1 4.34 2.64v.03a.12.12 0 0 1-.12.12l-8.7.18Z"/><path fill="#fff" d="M131.96 239.51a.3.3 0 0 0 .57 0l4.61-13.9q.2-.61.84-.61h1.5q.7 0 .48.67l-5.84 17.11a2.03 2.03 0 0 1-3.84 0l-5.83-17.04q-.24-.7.5-.72l1.54-.03q.64-.01.84.6l4.63 13.92ZM151.92 233.76c5.19 2.8 3.11 8.92-2.24 10.16q-1.72.4-7.35-.04-.58-.04-.58-.62v-17.52q0-.61.61-.64c5.12-.31 13.36-1.31 11.07 6.36q-.11.39-.42.67l-1.17 1.04q-.38.35.08.59Zm-7.44-6.09.02 4.6a.7.7 0 0 0 .7.7l2.48-.01a3.36 2.81-.2 0 0 3.35-2.82v-.38a3.36 2.81-.2 0 0-3.37-2.8l-2.48.01a.7.7 0 0 0-.7.7Zm.03 7.92-.02 5.68a.66.66 0 0 0 .66.66l2.47.01a4.33 3.36.2 0 0 4.34-3.35v-.28a4.33 3.36.2 0 0-4.32-3.37l-2.47-.01a.66.66 0 0 0-.66.66ZM159.19 239.56l-1.01 3.69q-.18.67-.87.69l-1.61.06q-.74.03-.5-.67l5.79-17.07a2.21 2.21 0 0 1 4.19 0l5.74 17.08q.23.68-.48.67l-1.73-.03a.83.82 82.4 0 1-.78-.6l-1.04-3.71a.92.91 81.7 0 0-.89-.67l-6.09.01a.75.75 0 0 0-.72.55Zm1.08-2.95a.3.3 0 0 0 .29.39h4.98a.3.3 0 0 0 .29-.39l-2.49-7.75a.3.3 0 0 0-.58 0l-2.49 7.75Z"/><path fill="#060" d="M144.48 227.67a.7.7 0 0 1 .7-.7l2.48-.01a3.36 2.81-.2 0 1 3.37 2.8v.38a3.36 2.81-.2 0 1-3.35 2.82l-2.48.01a.7.7 0 0 1-.7-.7l-.02-4.6ZM160.27 236.61l2.49-7.75a.3.3 0 0 1 .58 0l2.49 7.75a.3.3 0 0 1-.29.39h-4.98a.3.3 0 0 1-.29-.39ZM144.51 235.59a.66.66 0 0 1 .66-.66l2.47.01a4.33 3.36.2 0 1 4.32 3.37v.28a4.33 3.36.2 0 1-4.34 3.35l-2.47-.01a.66.66 0 0 1-.66-.66l.02-5.68Z"/></svg>