<?xml version="1.0" encoding="UTF-8"?>
<svg version="1.1" xmlns="http://www.w3.org/2000/svg" width="512" height="512">
<path d="M0 0 C1.29610506 -0.00445784 2.59221012 -0.00891569 3.92759109 -0.01350862 C5.37962581 -0.01341931 6.83166052 -0.01322944 8.28369522 -0.01294994 C9.81557186 -0.0162475 11.34744764 -0.01997284 12.87932229 -0.02409142 C17.10460668 -0.03413187 21.32987686 -0.03783149 25.55517149 -0.04048073 C30.10608368 -0.04437773 34.65698457 -0.05395647 39.20788956 -0.0626936 C50.2060653 -0.08247503 61.20424199 -0.0925263 72.20243108 -0.10142139 C77.37789875 -0.1058015 82.55336539 -0.11116902 87.72883224 -0.11641026 C104.9267938 -0.13342414 122.12475471 -0.14791922 139.32272339 -0.155159 C143.7877617 -0.15706898 148.2528 -0.1589893 152.71783829 -0.16094494 C153.82764212 -0.16142868 154.93744595 -0.16191242 156.08088019 -0.16241082 C174.06660807 -0.17071448 192.05226951 -0.19605635 210.03796837 -0.22852562 C228.4911645 -0.26156806 246.94432684 -0.2796052 265.39755273 -0.28280324 C275.76336678 -0.28497094 286.12908395 -0.29375752 296.49486923 -0.31926441 C305.32133937 -0.34093298 314.1476891 -0.34904082 322.97418281 -0.33929763 C327.47922694 -0.33474176 331.98402245 -0.33671359 336.48903275 -0.35605907 C340.61215159 -0.37361204 344.73483899 -0.37275749 348.85796192 -0.35716178 C350.3506018 -0.35477369 351.84327095 -0.35917123 353.33586594 -0.37099043 C355.36340426 -0.38605281 357.3910896 -0.37407982 359.41864014 -0.36076355 C360.54532537 -0.36174036 361.67201061 -0.36271717 362.83283782 -0.36372358 C367.74754807 0.41860538 371.80007235 3.30783212 374.96100235 7.13422108 C375.9136425 9.99214153 376.0887643 11.7648752 376.09522343 14.72945118 C376.09968127 15.67815743 376.10413911 16.62686369 376.10873204 17.60431862 C376.1084555 19.17095017 376.1084555 19.17095017 376.10817337 20.76923084 C376.11185006 21.87728171 376.11552675 22.98533258 376.11931485 24.12696075 C376.13037471 27.85985423 376.13419956 31.5927199 376.1380043 35.32562733 C376.14426759 37.99471675 376.15090153 40.66380318 376.15791702 43.33289051 C376.17768882 51.36146514 376.18775285 59.39004104 376.19664481 67.41863394 C376.20103037 71.20472037 376.20639684 74.99080542 376.21163368 78.77689075 C376.22865386 91.37514931 376.24314281 103.97340701 376.25038242 116.5716753 C376.25229219 119.84187286 376.25421253 123.11207042 376.25616837 126.38226795 C376.25665211 127.195016 376.25713585 128.00776404 376.25763424 128.84514081 C376.26591478 141.9786065 376.29121457 155.11198052 376.32374904 168.24540627 C376.35692343 181.74811298 376.3748409 195.25077332 376.37802666 208.75352097 C376.38018322 216.32685936 376.38880452 223.90006445 376.41448784 231.47336292 C376.43633789 237.93120533 376.44417615 244.38888212 376.43452106 250.84675729 C376.43001596 254.13426143 376.43387869 257.42135823 376.4512825 260.70882893 C376.60795621 292.08212476 370.13091126 318.19369023 349.96100235 343.13422108 C349.31260391 343.93730701 348.66420547 344.74039295 347.9961586 345.56781483 C330.24545501 366.51291906 303.85324649 379.2957005 276.96100235 383.13422108 C274.29017292 383.22842568 271.64571457 383.277845 268.97542191 383.27466297 C268.18866969 383.27763409 267.40191747 383.28060522 266.59132427 383.28366637 C263.96396974 383.29231416 261.33666098 383.29385832 258.70929337 383.29535389 C256.8214394 383.299985 254.93358636 383.30501006 253.04573441 383.31039906 C247.92127938 383.32350065 242.79683744 383.32996416 237.67236829 383.33440971 C234.46574622 383.33734531 231.25912768 383.34145113 228.0525074 383.34591389 C218.0054239 383.35958568 207.95834853 383.36925273 197.91125637 383.37311578 C186.34096133 383.37758965 174.77078483 383.3951077 163.20052582 383.42411637 C154.24058181 383.44579478 145.280671 383.45582341 136.32070106 383.4571569 C130.97761118 383.45820093 125.63463277 383.46402222 120.29157066 383.48197651 C115.25756747 383.49856295 110.22375825 383.50056182 105.18973732 383.4918375 C103.35287452 383.49107263 101.51600084 383.49533624 99.67916489 383.50529575 C71.42790266 383.64936018 44.14050041 375.45102712 22.96100235 356.13422108 C22.14889297 355.47422108 21.3367836 354.81422108 20.50006485 354.13422108 C0.32737948 337.33425598 -12.4485091 310.87172433 -16.03899765 285.13422108 C-16.29774165 281.22120899 -16.31401626 277.32558691 -16.29969406 273.40500355 C-16.30351961 272.2761558 -16.30734516 271.14730806 -16.31128663 269.98425281 C-16.32154462 266.22966911 -16.31763828 262.47524039 -16.31365585 258.72064686 C-16.3180061 256.01780668 -16.32312629 253.31497759 -16.32914352 250.61214161 C-16.34184737 244.05132411 -16.34368992 237.49054761 -16.34134326 230.92971988 C-16.33955639 225.59821267 -16.34131762 220.26671786 -16.3455677 214.93521214 C-16.34616289 214.1749218 -16.34675808 213.41463146 -16.34737131 212.63130202 C-16.3485831 211.08661255 -16.34979723 209.54192308 -16.35101368 207.99723361 C-16.36187095 193.53715338 -16.35973435 179.07709652 -16.35362884 164.61701499 C-16.34845188 151.38731642 -16.35973884 138.1576913 -16.37872706 124.92800726 C-16.39809059 111.33244872 -16.40636467 97.73692496 -16.40260381 84.14135253 C-16.40069071 76.51272114 -16.40319062 68.8841524 -16.41731834 61.25553226 C-16.4292136 54.76711826 -16.43065736 48.27880556 -16.41852818 41.79039021 C-16.41262858 38.48033227 -16.41318949 35.17049864 -16.42353058 31.86044598 C-16.43392988 28.27396921 -16.4259521 24.687995 -16.41321945 21.10153675 C-16.42059374 20.05359349 -16.42796802 19.00565024 -16.43556577 17.92595112 C-16.36948154 9.11258404 -16.36948154 9.11258404 -13.03899765 5.13422108 C-8.42280849 1.08098181 -6.09690396 0.00968419 0 0 Z M52.14850235 103.57172108 C48.90003693 107.37706628 47.71135146 109.36420952 47.69357681 114.31398487 C47.68504684 115.38644962 47.67651688 116.45891438 47.66772842 117.56387806 C47.6686348 118.74056049 47.66954117 119.91724293 47.67047501 121.12958241 C47.66375778 122.36883976 47.65704056 123.60809711 47.65011978 124.88490772 C47.63435779 128.28592573 47.62776358 131.68669956 47.62648821 135.08773732 C47.6250668 137.21334171 47.62079735 139.33892051 47.61549377 141.46451855 C47.59698565 148.88251209 47.58882392 156.30043373 47.59039688 163.71844959 C47.5915977 170.62869631 47.57050946 177.53863038 47.53890955 184.448798 C47.5127356 190.38437454 47.50203009 196.31984906 47.5033077 202.25548285 C47.50381712 205.79925311 47.49814579 209.34274571 47.4769516 212.8864584 C47.45394492 216.84132117 47.46309707 220.79575739 47.47516251 224.75067616 C47.46392349 225.9212859 47.45268448 227.09189564 47.44110489 228.2979784 C47.48955936 234.54136331 47.70183675 238.42148511 51.96100235 243.13422108 C56.66458078 246.82080957 61.64193852 247.24160882 67.5039711 246.97015858 C84.83152511 244.77867801 98.68791987 237.64013632 109.96100235 224.13422108 C123.94352875 204.03249179 128.25639599 180.3235084 124.37945938 156.35980701 C121.38706511 140.44459922 114.5380693 126.56985789 102.96100235 115.13422108 C102.33580704 114.4871117 101.71061172 113.84000233 101.0664711 113.17328358 C90.32107219 102.81245684 65.17549579 92.28166009 52.14850235 103.57172108 Z M165.96100235 104.13422108 C163.26401937 107.99493583 161.99522518 111.92843828 160.85138321 116.44257069 C160.66218307 117.16254734 160.47298294 117.88252399 160.27804947 118.62431812 C159.65315111 121.00984744 159.03952285 123.3981264 158.4258461 125.78656483 C157.98396805 127.48218787 157.5413723 129.17762403 157.09810257 130.8728838 C155.92612976 135.36264629 154.76357999 139.85479619 153.60309219 144.34753895 C152.23374876 149.64188282 150.85332722 154.93334575 149.47453117 160.22523403 C148.33472042 164.60162138 147.19774891 168.97870577 146.06705093 173.35745716 C143.77752881 182.2154115 141.44936892 191.06043435 139.04742813 199.88861561 C138.34810444 202.47708738 137.64970636 205.0658071 136.95160484 207.65460873 C136.50851593 209.28680347 136.06097721 210.91779795 135.60859871 212.54744244 C131.18189448 225.95290296 131.18189448 225.95290296 133.03255081 239.29439259 C135.18936858 242.6616713 137.19612454 244.65860963 140.96100235 246.13422108 C145.81542296 246.82313225 149.84051729 246.63221444 154.33600235 244.63422108 C159.67303965 239.55132841 161.54455044 233.2164806 162.96100235 226.13422108 C162.96100235 224.81422108 162.96100235 223.49422108 162.96100235 222.13422108 C172.20100235 222.13422108 181.44100235 222.13422108 190.96100235 222.13422108 C191.45600235 226.09422108 191.45600235 226.09422108 191.96100235 230.13422108 C193.63923575 237.60689547 196.49004171 241.82024731 202.96100235 246.13422108 C207.90468867 246.86598876 211.89674036 246.65667696 216.39850235 244.44672108 C219.63737771 241.52383356 221.60739372 239.59362205 222.24678421 235.14656544 C222.64752505 225.08718462 219.5681484 215.67652516 216.9570961 206.06781483 C216.43460108 204.10589381 215.91330774 202.1436524 215.39314651 200.18111134 C214.02198189 195.02088643 212.63452128 189.8651823 211.24353409 184.71027088 C209.85492308 179.5528021 208.48182397 174.39121121 207.10748672 169.2299242 C204.76367129 160.43372729 202.40040993 151.64291498 200.029459 142.85399914 C198.57715444 137.45892552 197.15552891 132.05702265 195.76227188 126.64642811 C195.44589264 125.43012211 195.1295134 124.21381611 194.80354691 122.96065235 C194.24913673 120.82317447 193.70309479 118.68349614 193.16814041 116.54106617 C191.5455495 110.32939847 189.76637479 105.6095497 184.83600235 101.25922108 C177.99027389 98.58045777 171.5058452 99.1303385 165.96100235 104.13422108 Z M243.14850235 103.57172108 C239.90003693 107.37706628 238.71135146 109.36420952 238.69357681 114.31398487 C238.68504684 115.38644962 238.67651688 116.45891438 238.66772842 117.56387806 C238.6686348 118.74056049 238.66954117 119.91724293 238.67047501 121.12958241 C238.66375778 122.36883976 238.65704056 123.60809711 238.65011978 124.88490772 C238.63435779 128.28592573 238.62776358 131.68669956 238.62648821 135.08773732 C238.6250668 137.21334171 238.62079735 139.33892051 238.61549377 141.46451855 C238.59698565 148.88251209 238.58882392 156.30043373 238.59039688 163.71844959 C238.5915977 170.62869631 238.57050946 177.53863038 238.53890955 184.448798 C238.5127356 190.38437454 238.50203009 196.31984906 238.5033077 202.25548285 C238.50381712 205.79925311 238.49814579 209.34274571 238.4769516 212.8864584 C238.45394492 216.84132117 238.46309707 220.79575739 238.47516251 224.75067616 C238.46392349 225.9212859 238.45268448 227.09189564 238.44110489 228.2979784 C238.48955936 234.54136331 238.70183675 238.42148511 242.96100235 243.13422108 C247.66458078 246.82080957 252.64193852 247.24160882 258.5039711 246.97015858 C275.83152511 244.77867801 289.68791987 237.64013632 300.96100235 224.13422108 C314.94352875 204.03249179 319.25639599 180.3235084 315.37945938 156.35980701 C312.38706511 140.44459922 305.5380693 126.56985789 293.96100235 115.13422108 C293.33580704 114.4871117 292.71061172 113.84000233 292.0664711 113.17328358 C281.32107219 102.81245684 256.17549579 92.28166009 243.14850235 103.57172108 Z " fill="#000000" transform="translate(25.038997650146484,128.86577892303467)"/>
<path d="M0 0 C1.03878296 -0.01591187 2.07756592 -0.03182373 3.14782715 -0.04821777 C4.2624231 -0.04841919 5.37701904 -0.04862061 6.52539062 -0.04882812 C7.68607056 -0.05644165 8.84675049 -0.06405518 10.04260254 -0.07189941 C12.50038507 -0.08269977 14.95821349 -0.0855538 17.41601562 -0.08105469 C21.14077561 -0.08008872 24.86343129 -0.12158279 28.58789062 -0.16601562 C46.48445275 -0.25681105 58.93722219 1.30662873 72.35351562 14.00195312 C82.29461293 24.53234228 84.251259 36.48412546 84.02148438 50.27929688 C83.47690914 62.61697636 77.28192044 72.31141563 68.49414062 80.60742188 C61.49549657 86.30177317 52.84286924 90.54992319 43.7588501 90.54017639 C42.27391808 90.54223839 42.27391808 90.54223839 40.75898743 90.54434204 C39.67933212 90.54074677 38.59967682 90.53715149 37.48730469 90.53344727 C36.34555283 90.53359329 35.20380096 90.53373932 34.02745056 90.53388977 C30.25070297 90.53319268 26.47400461 90.52540974 22.69726562 90.51757812 C20.07981391 90.51571322 17.46236185 90.51428966 14.84490967 90.51329041 C8.6578649 90.51018342 2.47083782 90.50197854 -3.71619916 90.49194092 C-10.76089545 90.48076016 -17.80559259 90.47526438 -24.85029554 90.47024548 C-39.33965927 90.45979541 -53.82900908 90.4422082 -68.31835938 90.41992188 C-68.26615234 91.80630859 -68.26615234 91.80630859 -68.21289062 93.22070312 C-68.35120951 97.41637606 -69.6767858 99.20719725 -72.31835938 102.41992188 C-77.72288444 106.33866685 -82.8620272 106.20727946 -89.31835938 105.41992188 C-93.92345913 103.23855883 -96.0944766 100.94328683 -98.31835938 96.41992188 C-99.57716128 87.24115797 -98.82010275 79.08057721 -93.31835938 71.41992188 C-88.52809734 65.26271161 -82.51138397 61.13949315 -74.66961288 60.05289841 C-71.69258953 59.90512723 -68.7398787 59.8823697 -65.75927734 59.90576172 C-64.63779297 59.89863663 -63.51630859 59.89151154 -62.36083984 59.88417053 C-58.67722688 59.86497077 -54.99419288 59.87315345 -51.31054688 59.88085938 C-48.73942226 59.87094783 -46.16830474 59.85900485 -43.59719849 59.84512329 C-37.53195788 59.81610384 -31.46690288 59.80317821 -25.4016 59.79954684 C-13.89602716 59.79248652 -2.39062365 59.75704814 9.11483383 59.70610428 C12.88773324 59.69353172 16.66046404 59.6942759 20.43338013 59.69638062 C22.74937062 59.68979946 25.06535996 59.68279304 27.38134766 59.67529297 C28.42672699 59.67941696 29.47210632 59.68354095 30.54916382 59.68778992 C37.4235594 59.64974593 43.16047407 59.61224062 48.55664062 54.91992188 C52.01636408 50.84965899 51.96397803 48.10099531 51.89648438 42.89648438 C51.61479553 39.64938028 50.83307045 37.86810064 48.68164062 35.41992188 C42.54128605 30.89545009 36.09108788 31.27731532 28.77929688 31.24414062 C26.81769752 31.22094937 24.85610893 31.19683233 22.89453125 31.171875 C19.81576232 31.13674102 16.73739251 31.10739251 13.65844727 31.09399414 C10.67741279 31.07849896 7.69752683 31.0382918 4.71679688 30.99414062 C3.80100357 30.99604904 2.88521027 30.99795746 1.94166565 30.99992371 C-3.63193056 30.89358153 -6.91037843 30.16272673 -11.31835938 26.41992188 C-15.37466336 21.1973233 -15.09233481 15.76652045 -14.31835938 9.41992188 C-11.31229007 3.07377556 -7.0231851 0.06504966 0 0 Z " fill="#000000" transform="translate(233.318359375,-0.419921875)"/>
<path d="M0 0 C5.28713382 0.77163575 9.40587709 2.28095977 14.1875 4.5625 C14.93781494 4.91965088 15.68812988 5.27680176 16.46118164 5.64477539 C35.2639113 14.85126712 49.75830096 29.96524099 60 48 C60.54785156 48.95777344 61.09570312 49.91554687 61.66015625 50.90234375 C70.30332412 67.01709918 73.39947966 84.8850526 73.375 103 C73.37445618 103.6808667 73.37391235 104.3617334 73.37335205 105.06323242 C73.26861488 133.66234502 63.57745232 158.18817876 45 180 C44.41605469 180.68835938 43.83210938 181.37671875 43.23046875 182.0859375 C35.61440929 190.29971301 25.5509841 196.48150657 15.625 201.5 C14.98377197 201.82605225 14.34254395 202.15210449 13.68188477 202.48803711 C9.21126073 204.65674819 4.85048848 205.92450366 0 207 C-2.22306475 178.11725869 -2.22306475 178.11725869 1.27734375 171.63427734 C4.86947299 167.98723246 9.23330235 166.69437218 14 165 C28.70469495 155.12062027 36.91360119 136.03477296 40.578125 119.37109375 C43.52110621 95.85449389 39.91333706 73.2287769 25.5 54 C24.35524559 52.64780688 23.18899773 51.31345852 22 50 C21.43152344 49.34 20.86304688 48.68 20.27734375 48 C17.11228061 44.55942181 14.84756047 42.31360652 10.37890625 40.66015625 C5.88378991 38.92341963 2.36059938 37.39349202 0 33 C-1.8718368 22.17944418 -0.83844397 10.89332204 0 0 Z " fill="#000000" transform="translate(430,197)"/>
<path d="M0 0 C7.62192306 3.04876922 11.32134304 8.10504054 14.8125 15.4375 C16.82406877 20.23888381 18.24863959 24.85147354 19 30 C19.1340625 30.89074219 19.268125 31.78148437 19.40625 32.69921875 C21.16045053 47.62985737 18.32648762 62.69421673 9.5859375 75.05078125 C7.29703664 77.86398699 4.96660253 79.90989367 2 82 C1.34 82 0.68 82 0 82 C0 54.94 0 27.88 0 0 Z " fill="#000000" transform="translate(293,261)"/>
<path d="M0 0 C7.62192306 3.04876922 11.32134304 8.10504054 14.8125 15.4375 C16.82406877 20.23888381 18.24863959 24.85147354 19 30 C19.1340625 30.89074219 19.268125 31.78148437 19.40625 32.69921875 C21.16045053 47.62985737 18.32648762 62.69421673 9.5859375 75.05078125 C7.29703664 77.86398699 4.96660253 79.90989367 2 82 C1.34 82 0.68 82 0 82 C0 54.94 0 27.88 0 0 Z " fill="#000000" transform="translate(102,261)"/>
<path d="M0 0 C0.66 0 1.32 0 2 0 C2.67286212 2.41509441 3.33846012 4.83180356 4 7.25 C4.19078125 7.93191406 4.3815625 8.61382812 4.578125 9.31640625 C5.49957044 12.70600912 6 15.45778976 6 19 C2.7 19 -0.6 19 -4 19 C-3.37968409 12.42465139 -1.85102717 6.33307408 0 0 Z " fill="#000000" transform="translate(201,302)"/>
</svg>
